<?xml version="1.0" encoding="utf-8"?>
<!-- Generator: Adobe Illustrator 22.0.0, SVG Export Plug-In . SVG Version: 6.00 Build 0)  -->
<svg version="1.1" baseProfile="basic" id="Layer_1"
	 xmlns="http://www.w3.org/2000/svg" xmlns:xlink="http://www.w3.org/1999/xlink" x="0px" y="0px" viewBox="0 0 900 900"
	 xml:space="preserve">
<g>
	
		<linearGradient id="SVGID_1_" gradientUnits="userSpaceOnUse" x1="0" y1="-6.612026e-08" x2="1" y2="-6.612026e-08" gradientTransform="matrix(-849.3513 735.2593 735.2593 849.3513 863.7274 97.692)">
		<stop  offset="0" style="stop-color:#6AD114"/>
		<stop  offset="0.541" style="stop-color:#34A759"/>
		<stop  offset="1" style="stop-color:#08638F"/>
	</linearGradient>
	<path fill="url(#SVGID_1_)" d="M723.6,434.2c-28.3,23.4-71.3,48.9-117.1,73l-0.2,0.1c-72.7,38.2-152.2,73-190.4,90.7
		c-14.1,6.5-30.5,3-40.2-8.7L347,554.6L619.6,350l6.9,50.2c80.1-66.3,90.3-171.5,90.3-171.5s-105.3-9.8-185.5,56.4l48,16.2
		L327.2,530.6l-28.7-34.7c-9.6-11.6-10-28.5-1-41.1C322,420.6,371,349.3,422.1,285.2c0.1-0.1,0.2-0.2,0.3-0.3
		c32.3-40.5,65.4-78.1,93.8-101.5c17.2-14.2,36.7-27.2,57.6-38.6l0,0c89.8-49,207.3-69.9,296.7-43.2c9.5,92.8-33.2,204.3-98.2,283.3
		l0,0C757.2,403.3,740.8,420,723.6,434.2z"/>
	
		<linearGradient id="SVGID_2_" gradientUnits="userSpaceOnUse" x1="6.023565e-07" y1="-1.403951e-07" x2="1" y2="-1.403951e-07" gradientTransform="matrix(-369.3615 327.7042 327.7042 369.3615 544.0116 129.3038)">
		<stop  offset="0" style="stop-color:#6AD114"/>
		<stop  offset="0.541" style="stop-color:#34A759"/>
		<stop  offset="1" style="stop-color:#08638F"/>
	</linearGradient>
	<path fill="url(#SVGID_2_)" d="M498.5,213.2c12.4-9.2,32.1-39.7,46.3-47.4l18.7-14.5l-133.6-10.1L187.4,471.4l93.2-19.1
		C298.5,435,421.9,269.7,498.5,213.2z"/>
	
		<linearGradient id="SVGID_3_" gradientUnits="userSpaceOnUse" x1="1.042927e-07" y1="-5.134516e-07" x2="1" y2="-5.134516e-07" gradientTransform="matrix(-368.9966 327.3804 327.3804 368.9966 771.7759 402.5256)">
		<stop  offset="0" style="stop-color:#6AD114"/>
		<stop  offset="0.541" style="stop-color:#34A759"/>
		<stop  offset="1" style="stop-color:#08638F"/>
	</linearGradient>
	<path fill="url(#SVGID_3_)" d="M690.9,446c11.3-10.5,45-24,55.3-36.6l17.8-15.7l-15.2,133.1L378.9,703l36.3-88
		C435.5,600.7,621.1,510.5,690.9,446z"/>
	
		<linearGradient id="SVGID_4_" gradientUnits="userSpaceOnUse" x1="4.347812e-07" y1="-1.176168e-07" x2="1" y2="-1.176168e-07" gradientTransform="matrix(-275.0741 244.0507 244.0507 275.0741 318.5457 553.6246)">
		<stop  offset="0" style="stop-color:#6AD114"/>
		<stop  offset="0.541" style="stop-color:#34A759"/>
		<stop  offset="1" style="stop-color:#08638F"/>
	</linearGradient>
	<path fill="url(#SVGID_4_)" d="M186.7,752.3l72.9-74.2L37.2,790.6l152.3-197.3l-86.6,57.6c0,0,38.4-113.8,162.7-157l44.1,53.3
		L177.2,674.8l150.2-106.1l44.1,53.4C305.6,736,186.7,752.3,186.7,752.3z"/>
	
		<linearGradient id="SVGID_5_" gradientUnits="userSpaceOnUse" x1="2.535735e-07" y1="-1.561475e-07" x2="1" y2="-1.561475e-07" gradientTransform="matrix(-716.7154 635.8828 635.8828 716.7154 672.5573 -81.9201)">
		<stop  offset="0" style="stop-color:#6AD114"/>
		<stop  offset="0.541" style="stop-color:#34A759"/>
		<stop  offset="1" style="stop-color:#08638F"/>
	</linearGradient>
	<path fill="url(#SVGID_5_)" d="M647.9,55.7c-1.1-0.6-2.1-1.1-3.2-1.7C584.9,23.9,517.5,7,446.1,7C201.8,7,2.9,205.8,2.9,450.2
		c0,83.6,23.3,161.8,63.7,228.6l12.2-36c0.3-1,2.4-7.1,6.7-16.3c-26.1-53.3-40.9-113.1-40.9-176.3c0-221.4,180.1-401.5,401.5-401.5
		c64.5,0,125.5,15.3,179.5,42.5h0c0.9,0.5,1.9,0.9,2.8,1.4c18.2-6.5,36.8-11.9,55.3-16.2c34.7-8.2,69.7-12.5,103.3-12.5
		c5.1,0,10.1,0.1,15,0.3C747.8,44.4,675.6,51.7,647.9,55.7z"/>
	
		<linearGradient id="SVGID_6_" gradientUnits="userSpaceOnUse" x1="-3.182531e-07" y1="-2.025072e-07" x2="1" y2="-2.025072e-07" gradientTransform="matrix(-716.6438 635.8193 635.8193 716.6438 998.9319 292.114)">
		<stop  offset="0" style="stop-color:#6AD114"/>
		<stop  offset="0.541" style="stop-color:#34A759"/>
		<stop  offset="1" style="stop-color:#08638F"/>
	</linearGradient>
	<path fill="url(#SVGID_6_)" d="M874.8,337.9c25.5-61.1,23.5-127.9,19.7-163.4c-5.7,38.4-17.6,78.1-34.9,116.4
		c-7.8,17.6-16.7,34.9-26.7,51.6c0.3,1.1,0.6,2.2,0.9,3.2c9,33.3,13.8,68.4,13.8,104.5c0,221.4-180.1,401.5-401.5,401.5
		c-88.8,0-171-29-237.6-78c-10.6,2.7-17.3,3.6-18.5,3.8l-36.8,5c78.2,69,180.7,110.8,292.8,110.8c244.4,0,443.2-198.8,443.2-443.2
		c0-37.5-4.7-73.9-13.5-108.7C875.5,340.3,875.1,339.1,874.8,337.9z"/>
</g>
</svg>
