<svg id="Layer_1" data-name="Layer 1" xmlns="http://www.w3.org/2000/svg" xmlns:xlink="http://www.w3.org/1999/xlink" viewBox="0 0 1080 1080"><defs><style>.cls-1,.cls-11,.cls-13,.cls-18,.cls-21,.cls-5,.cls-8{fill:none;}.cls-2{clip-path:url(#clip-path);}.cls-3{fill:#fefdbc;}.cls-4{fill:#9af9bf;}.cls-11,.cls-13,.cls-18,.cls-21,.cls-5,.cls-8{stroke:#000;stroke-miterlimit:10;}.cls-5{stroke-width:4px;}.cls-6{fill:#a59e8e;}.cls-7{fill:#67b09d;}.cls-8{stroke-width:12px;}.cls-9{clip-path:url(#clip-path-2);}.cls-10{fill:url(#linear-gradient);}.cls-11{stroke-width:8px;}.cls-12{fill:#242623;}.cls-13{stroke-width:3px;}.cls-14,.cls-15{font-size:11.84px;}.cls-14,.cls-15,.cls-22{fill:#fff;}.cls-14{font-family:PokemonSolidNormal, Pokemon Solid;}.cls-15{font-family:MyriadPro-Regular, Myriad Pro;}.cls-16{letter-spacing:0em;}.cls-17{letter-spacing:0em;}.cls-18{stroke-width:5px;}.cls-19{clip-path:url(#clip-path-5);}.cls-20{fill:url(#linear-gradient-2);}.cls-21{stroke-width:6px;}.cls-23{clip-path:url(#clip-path-7);}.cls-24{fill:url(#linear-gradient-3);}.cls-25{clip-path:url(#clip-path-9);}.cls-26{fill:url(#linear-gradient-4);}.cls-27{fill:#60c383;}.cls-28{clip-path:url(#clip-path-11);}.cls-29{fill:url(#linear-gradient-5);}</style><clipPath id="clip-path"><rect class="cls-1" x="-176.29" y="135.1" width="1433.23" height="805.8"/></clipPath><clipPath id="clip-path-2"><path class="cls-1" d="M250.54,621.46c0,119.1,96.55,215.66,215.66,215.66s215.65-96.56,215.65-215.66S585.3,405.8,466.2,405.8,250.54,502.36,250.54,621.46"/></clipPath><linearGradient id="linear-gradient" x1="-326.62" y1="-17.6" x2="-325.57" y2="-17.6" gradientTransform="matrix(0, 393.87, 393.87, 0, 7399.41, 129054.65)" gradientUnits="userSpaceOnUse"><stop offset="0" stop-color="#db8a42"/><stop offset="0.39" stop-color="#aa652c"/><stop offset="0.8" stop-color="#7d4417"/><stop offset="1" stop-color="#6c370f"/></linearGradient><clipPath id="clip-path-5"><path class="cls-1" d="M345.09,518a158.45,158.45,0,1,0,118.64-53.44A158,158,0,0,0,345.09,518"/></clipPath><linearGradient id="linear-gradient-2" x1="-323.6" y1="-17.01" x2="-322.55" y2="-17.01" gradientTransform="matrix(0, 174.31, 174.31, 0, 3428.28, 56952.61)" gradientUnits="userSpaceOnUse"><stop offset="0" stop-color="#8c6239"/><stop offset="0.26" stop-color="#6d4726"/><stop offset="0.54" stop-color="#563217"/><stop offset="0.79" stop-color="#47250e"/><stop offset="1" stop-color="#42210b"/></linearGradient><clipPath id="clip-path-7"><path class="cls-1" d="M298.15,278.48c27.64-10.86,37.51,3,37.51,3C235,286.38,164.91,418.63,164.91,418.63c-7.9-30.59,21.71-77,21.71-77C140.23,378.17,41.53,583.46,41.53,583.46L79,634.78c0-29.61,26.65-57.24,26.65-57.24-10.86,25.66,5.92,48.36,5.92,48.36l84.17-133.24,36.74,91.18c6.41-13.43,0-45,0-45,13.32,25.42,11.35,57.48,11.35,57.48l81.76,153h84.05L383,678.21c-12.83,16.78-10.86,33.56-10.86,33.56-8.88-24.68,2-65.14,2-65.14L276.44,454.16l103.63-70.07c-18.75-11.85-36.52-6.91-36.52-6.91,22.7-29.61,79.95-29.61,79.95-29.61L360.33,236Z"/></clipPath><linearGradient id="linear-gradient-3" x1="-326.51" y1="-18.81" x2="-325.46" y2="-18.81" gradientTransform="matrix(0, 364.05, 364.05, 0, 7081.03, 119254.12)" gradientUnits="userSpaceOnUse"><stop offset="0" stop-color="#60c383"/><stop offset="0.19" stop-color="#4bb876"/><stop offset="0.74" stop-color="#159d53"/><stop offset="1" stop-color="#009245"/></linearGradient><clipPath id="clip-path-9"><path class="cls-1" d="M548.61,429.49c0,.05,0,0,.07-.05s-.07,0-.07.05m-13.82-97.71-24.8,100c23.57-26.34,63.29-30.9,63.29-30.9-14.95,4.67-23.71,27.06-24.6,28.57,3.1-1.21,102.58-9.82,102.58-9.82l-19.89,72.54c-9,10.37,4.09,59.72,4.09,59.72-7.89,3-14.8-31.59-14.8-31.59L592,613.07c-2,28.62,14.8,52.31,14.8,52.31-17.76,3-28.62-36.52-28.62-36.52-6.91,20.73-4,58.23-4,58.23l-17.62,61.69H662.5l-10.26-27.14c-18.75-20.73-1-75-1-75-1,30.59,13.81,40.46,13.81,40.46l41.46-122.38c-18.75-28.63-3-68.1-3-68.1,2,24.67,13.82,37.5,13.82,37.5L781.7,411.23l76.82,5.43a84.71,84.71,0,0,0,10.37.22c12.66-.48,22.15-3.61,30.59-6.51a155.55,155.55,0,0,0,20.24-8.52c6.91,20.73-27.64,28.63-27.64,28.63l54.29,7.89,66.12-80.93L905.9,348.56c22.7-16.78,64.15-16.78,64.15-16.78-77-31.59-265.5,3-265.5,3,8.89-26.65,59.22-32.57,59.22-32.57-130.28-13.82-195.42,41.54-195.42,41.54-9.87-8.8,33.56-45.49,33.56-45.49-20.73,2-67.12,33.56-67.12,33.56"/></clipPath><linearGradient id="linear-gradient-4" x1="-327.29" y1="-16.9" x2="-326.24" y2="-16.9" gradientTransform="matrix(-478.93, 0, 0, 478.93, -155821.44, 8613.55)" gradientUnits="userSpaceOnUse"><stop offset="0" stop-color="#242623"/><stop offset="0.52" stop-color="#0f100f"/><stop offset="1"/></linearGradient><clipPath id="clip-path-11"><rect class="cls-1" x="147.4" y="746.81" width="638.58" height="106.6"/></clipPath><linearGradient id="linear-gradient-5" x1="-318.67" y1="-15.99" x2="-317.62" y2="-15.99" gradientTransform="matrix(-91.87, 0, 0, 91.87, -28752.44, 2269.5)" gradientUnits="userSpaceOnUse"><stop offset="0" stop-color="#25d282"/><stop offset="0.79" stop-color="#08a052"/><stop offset="1" stop-color="#009245"/></linearGradient></defs><title>Logo Terratrek</title><g class="cls-2"><path class="cls-3" d="M361.57,355.71q3.53,10.8,7.06,21.6s1.82,23.8,14.65.12,25.67,0,25.67,0c3.51-2,19.66-11.72,24.77-31.59a49.58,49.58,0,0,0-.1-24.67,156.37,156.37,0,0,0-72.05,34.54"/><path class="cls-4" d="M774.14,618.5c0-167.35-135.66-303-303-303s-303,135.66-303,303a302.09,302.09,0,0,0,22.49,114.77C235.85,843.71,344.41,921.5,471.13,921.5c167.35,0,303-135.66,303-303"/><path class="cls-5" d="M774.14,618.5c0-167.35-135.66-303-303-303s-303,135.66-303,303a302.09,302.09,0,0,0,22.49,114.77C235.85,843.71,344.41,921.5,471.13,921.5,638.48,921.5,774.14,785.84,774.14,618.5Z"/><circle class="cls-5" cx="466.69" cy="622.94" r="215.66"/><path class="cls-6" d="M176.58,547.14l30,12.63v32.08l-15,16.41v51.59l15,19v31.23l-22.2,6.48S153.94,648,176.58,547.14"/><polygon class="cls-7" points="343.88 408.06 363.23 433.68 373.57 428.37 353.77 401.38 343.88 408.06"/><path class="cls-6" d="M496.48,316.54l-25.35,53.15,203.32,105.7,30.75-49.32s-77.77-98.6-208.72-109.53"/><path class="cls-3" d="M361.58,352q3.53,10.8,7.06,21.6s1.82,23.8,14.65.11,25.66,0,25.66,0c3.51-2,19.67-11.71,24.78-31.58a49.7,49.7,0,0,0-.1-24.67A156.37,156.37,0,0,0,361.58,352"/><polygon class="cls-6" points="240.24 716.56 240.24 727 251.03 727 245.64 692.02 262.33 692.02 253.09 652.85 240.24 657.03 245.6 671.3 232.52 682.76 240.24 716.56"/><path class="cls-3" d="M183.32,523.5s11.31,30.31,23.23,7.38,26-13.85,26-13.85,95.23-19.24,64.77-65.48,32-12.34,32-12.34l-51.14-37.83Z"/><path class="cls-3" d="M761.24,530.78s-26.41-9.74-24,0-12.78,16.36-12.78,16.36-6.55,15.1,5.29,18.06,26.4,11.86,12.21,23.2-40.83,3.45-31,24.18,26.56,56.86,38,40.27,6.33-47.18,12.31-34.35-8.94,37.45,0,43.4a16,16,0,0,1,7.15,15.61s13.52-65.67-7.15-146.73"/><polygon class="cls-6" points="708.83 677.51 708.83 716.56 757.91 716.56 768.39 677.51 750.45 664.89 708.83 677.51"/><path class="cls-8" d="M773.91,618.73c0-167.34-135.66-303-303-303s-303,135.66-303,303a302.14,302.14,0,0,0,22.49,114.78C235.62,843.94,344.18,921.74,470.9,921.74,638.25,921.74,773.91,786.08,773.91,618.73Z"/><path class="cls-4" d="M738.61,546.87s-4.45,1.06-3.46,3,4.35,2.25,5.63,1.62,1.28-3.74-2.17-4.65"/><polygon class="cls-6" points="682.3 618.5 699.76 618.5 699.76 584.7 680.21 589.31 682.3 618.5"/></g><g class="cls-9"><rect class="cls-10" x="244.61" y="399.88" width="443.16" height="443.16" transform="translate(-17.14 13.23) rotate(-1.6)"/></g><g class="cls-2"><circle class="cls-11" cx="466.2" cy="621.46" r="215.66"/><path class="cls-12" d="M167.9,475.38s-3.39-34.06,31.48-41.7c0,0-23.81,14.07-31.48,41.7"/><path class="cls-13" d="M167.9,475.38s-3.39-34.06,31.48-41.7C199.38,433.68,175.57,447.75,167.9,475.38Z"/></g><text class="cls-14" transform="translate(227.84 791.03)">LorT</text><text class="cls-15" transform="translate(253.31 791.03)">E<tspan class="cls-16" x="5.83" y="0">r</tspan><tspan class="cls-17" x="9.65" y="0">a </tspan></text><text class="cls-14" transform="translate(271.17 791.03)">em ipsum</text><g class="cls-2"><polygon class="cls-6" points="370.77 853.72 395.86 842.51 438.56 876.13 395.86 893.37 345.94 880.77 370.77 853.72"/><path class="cls-3" d="M507.35,857.85s52.66-55,67.12-26.24S587.08,901,553.8,902.85s-57.77-24-46.45,0,0-45,0-45"/><polygon class="cls-6" points="447.94 823.3 447.94 870.59 417.69 867.71 417.69 884.24 466.69 884.24 466.69 816.85 447.94 823.3"/><polygon class="cls-7" points="602.57 872.5 602.57 830.5 682.35 718.55 689.99 718.55 609.5 830.5 609.5 872.5 602.57 872.5"/><polygon class="cls-7" points="358.73 408.13 402.54 381.36 395.1 363.22 402.54 361.69 412.4 388.04 358.73 417.53 358.73 408.13"/><polygon class="cls-7" points="206.55 687.89 233.69 687.89 235.48 695.72 206.55 695.72 206.55 687.89"/><polygon class="cls-7" points="694.06 618.73 692.86 677.51 708.83 677.51 708.83 671.74 699.76 670.84 699.76 618.5 694.06 618.73"/><path class="cls-7" d="M671,609.52a1.58,1.58,0,0,0,0-3.15,1.58,1.58,0,0,0,0,3.15"/><path d="M543.81,343.62S590.2,312,610.93,310.06c0,0-43.43,36.7-33.56,45.49,0,0,65.14-55.36,195.42-41.54,0,0-50.33,5.92-59.22,32.57,0,0,188.52-34.54,265.5-3,0,0-41.45,0-64.15,16.78l106.59,8.88-66.13,80.94-54.28-7.9s34.54-7.9,27.64-28.62a156.45,156.45,0,0,1-20.24,8.51c-8.44,2.9-17.94,6-30.59,6.52a86.37,86.37,0,0,1-10.37-.23l-76.82-5.43L726.4,546s-11.84-12.83-13.82-37.5c0,0-15.79,39.48,3,68.1L674.09,698.94s-14.8-9.87-13.82-40.47c0,0-17.76,54.28,1,75l10.26,27.14H565.67l17.62-61.68s-3-37.51,4-58.23c0,0,10.85,39.48,28.62,36.51,0,0-16.78-23.68-14.8-52.31l28.62-92.77s6.91,34.54,14.8,31.58c0,0-13.12-49.35-4.09-59.71l19.88-72.55s-102.64,8.89-102.64,9.87,8.88-23.68,24.67-28.62c0,0-39.72,4.57-63.29,30.91Z"/><path class="cls-18" d="M543.81,343.62S590.2,312,610.93,310.06c0,0-43.43,36.7-33.56,45.49,0,0,65.14-55.36,195.42-41.54,0,0-50.33,5.92-59.22,32.57,0,0,188.52-34.54,265.5-3,0,0-41.45,0-64.15,16.78l106.59,8.88-66.13,80.94-54.28-7.9s34.54-7.9,27.64-28.62a156.45,156.45,0,0,1-20.24,8.51c-8.44,2.9-17.94,6-30.59,6.52a86.37,86.37,0,0,1-10.37-.23l-76.82-5.43L726.4,546s-11.84-12.83-13.82-37.5c0,0-15.79,39.48,3,68.1L674.09,698.94s-14.8-9.87-13.82-40.47c0,0-17.76,54.28,1,75l10.26,27.14H565.67l17.62-61.68s-3-37.51,4-58.23c0,0,10.85,39.48,28.62,36.51,0,0-16.78-23.68-14.8-52.31l28.62-92.77s6.91,34.54,14.8,31.58c0,0-13.12-49.35-4.09-59.71l19.88-72.55s-102.64,8.89-102.64,9.87,8.88-23.68,24.67-28.62c0,0-39.72,4.57-63.29,30.91Z"/><path d="M56.78,593.82S155.48,388.53,201.87,352c0,0-29.61,46.39-21.72,77,0,0,70.08-132.26,170.75-137.2,0,0-9.87-13.81-37.5-3l62.17-42.44,63.17,111.53s-57.24,0-79.94,29.61c0,0,17.76-4.93,36.51,6.91L291.68,464.53,389.39,657s-10.85,40.47-2,65.14c0,0-2-16.78,10.86-33.56l26.64,71.07h-84l-81.77-153s2-32-11.35-57.48c0,0,6.42,31.6,0,45L211,503,126.85,636.26s-16.77-22.7-5.92-48.36c0,0-26.65,27.64-26.65,57.25Z"/><path class="cls-18" d="M56.78,593.82S155.48,388.53,201.87,352c0,0-29.61,46.39-21.72,77,0,0,70.08-132.26,170.75-137.2,0,0-9.87-13.81-37.5-3l62.17-42.44,63.17,111.53s-57.24,0-79.94,29.61c0,0,17.76-4.93,36.51,6.91L291.68,464.53,389.39,657s-10.85,40.47-2,65.14c0,0-2-16.78,10.86-33.56l26.64,71.07h-84l-81.77-153s2-32-11.35-57.48c0,0,6.42,31.6,0,45L211,503,126.85,636.26s-16.77-22.7-5.92-48.36c0,0-26.65,27.64-26.65,57.25Z"/></g><g class="cls-19"><rect class="cls-20" x="303.7" y="462.91" width="320.05" height="320.05" transform="translate(-6.35 4.78) rotate(-0.59)"/></g><g class="cls-2"><path class="cls-21" d="M622.14,622.94a158.26,158.26,0,1,1-9.26-53.49A158.41,158.41,0,0,1,622.14,622.94Z"/><path d="M555.52,643.17c0,67.87-41.1,122.88-91.79,122.88s-91.79-55-91.79-122.88S413,520.29,463.73,520.29s91.79,55,91.79,122.88"/><ellipse class="cls-21" cx="463.73" cy="643.17" rx="91.79" ry="122.88"/><path class="cls-22" d="M527.88,571.62a37.51,37.51,0,1,1-37.5-37.51,37.5,37.5,0,0,1,37.5,37.51"/><path class="cls-21" d="M527.88,571.62a37.51,37.51,0,1,1-37.5-37.51A37.5,37.5,0,0,1,527.88,571.62Z"/><path class="cls-22" d="M601.91,492.66c0,28.89-19.45,52.31-43.43,52.31s-43.43-23.42-43.43-52.31,19.44-52.31,43.43-52.31,43.43,23.42,43.43,52.31"/></g><g class="cls-23"><rect class="cls-24" x="-55.84" y="176.68" width="576.72" height="631.95" transform="translate(-202.31 164.48) rotate(-27.69)"/></g><g class="cls-2"><path class="cls-18" d="M41.53,583.46s98.7-205.29,145.09-241.81c0,0-29.61,46.39-21.71,77,0,0,70.07-132.25,170.75-137.19,0,0-9.87-13.82-37.51-3L360.33,236,423.5,347.57s-57.25,0-79.95,29.61c0,0,17.77-4.94,36.52,6.91L276.44,454.16l97.71,192.47s-10.86,40.46-2,65.14c0,0-2-16.78,10.86-33.56l26.65,71.06H325.63l-81.76-153s2-32.06-11.35-57.48c0,0,6.41,31.6,0,45l-36.74-91.18L111.61,625.9s-16.78-22.7-5.92-48.36c0,0-26.65,27.63-26.65,57.24Z"/></g><g class="cls-25"><rect class="cls-26" x="463.23" y="207.28" width="596.02" height="622.58" transform="translate(28.03 1076.06) rotate(-71.51)"/></g><g class="cls-2"><path class="cls-18" d="M534.79,331.78s46.39-31.59,67.12-33.56c0,0-43.43,36.69-33.56,45.49,0,0,65.14-55.36,195.42-41.54,0,0-50.33,5.92-59.22,32.57,0,0,188.52-34.55,265.5-3,0,0-41.45,0-64.15,16.78l106.59,8.88-66.12,80.93-54.29-7.89s34.55-7.9,27.64-28.63a155.55,155.55,0,0,1-20.24,8.52c-8.44,2.9-17.93,6-30.59,6.51a84.71,84.71,0,0,1-10.37-.22l-76.82-5.43L717.38,534.11s-11.84-12.83-13.81-37.5c0,0-15.79,39.47,3,68.1L665.07,687.09s-14.8-9.87-13.81-40.46c0,0-17.77,54.28,1,75l10.26,27.14H556.65l17.62-61.69s-3-37.5,4-58.23c0,0,10.86,39.48,28.62,36.52,0,0-16.78-23.69-14.8-52.31l28.62-92.78s6.91,34.55,14.8,31.59c0,0-13.12-49.35-4.09-59.72l19.89-72.54s-102.65,8.88-102.65,9.87,8.88-23.69,24.68-28.62c0,0-39.73,4.56-63.3,30.9Z"/><path class="cls-12" d="M262.14,628.06s-20.51-27.42,5.4-52c0,0-13.11,24.35-5.4,52"/><path class="cls-13" d="M262.14,628.06s-20.51-27.42,5.4-52C267.54,576.08,254.43,600.43,262.14,628.06Z"/><path class="cls-12" d="M336.53,668.62S321.22,638,351.08,618.44c0,0-17.24,21.63-14.55,50.18"/><path class="cls-13" d="M336.53,668.62S321.22,638,351.08,618.44C351.08,618.44,333.84,640.07,336.53,668.62Z"/><path class="cls-12" d="M337.65,755.51s-23-25.34.45-52.25c0,0-10.75,25.49-.45,52.25"/><path class="cls-13" d="M337.65,755.51s-23-25.34.45-52.25C338.1,703.26,327.35,728.75,337.65,755.51Z"/><path class="cls-12" d="M258,518s-17-29.73,11.75-50.92c0,0-16,22.56-11.75,50.92"/><path class="cls-13" d="M258,518s-17-29.73,11.75-50.92C269.73,467.06,253.72,489.62,258,518Z"/><path class="cls-12" d="M296.69,597.74S280.62,567.51,310,547.2c0,0-16.69,22.06-13.29,50.54"/><path class="cls-13" d="M296.69,597.74S280.62,567.51,310,547.2C310,547.2,293.29,569.26,296.69,597.74Z"/><path class="cls-12" d="M289.78,677.68s-16.07-30.23,13.29-50.54c0,0-16.69,22.06-13.29,50.54"/><path class="cls-13" d="M289.78,677.68s-16.07-30.23,13.29-50.54C303.07,627.14,286.38,649.2,289.78,677.68Z"/><path class="cls-12" d="M145.4,560.07s-24.15-24.26-2-52.22c0,0-9.57,26,2,52.22"/><path class="cls-13" d="M145.4,560.07s-24.15-24.26-2-52.22C143.45,507.85,133.88,533.81,145.4,560.07Z"/><path class="cls-12" d="M89.6,560s-26.33-21.89-6.85-51.8c0,0-7.09,26.73,6.85,51.8"/><path class="cls-13" d="M89.6,560s-26.33-21.89-6.85-51.8C82.75,508.23,75.66,535,89.6,560Z"/><path class="cls-12" d="M207.63,470.77s-17-29.72,11.74-50.92c0,0-16,22.56-11.74,50.92"/><path class="cls-13" d="M207.63,470.77s-17-29.72,11.74-50.92C219.37,419.85,203.37,442.41,207.63,470.77Z"/><path class="cls-12" d="M244.15,367.14s-17-29.73,11.74-50.92c0,0-16,22.56-11.74,50.92"/><path class="cls-13" d="M244.15,367.14s-17-29.73,11.74-50.92C255.89,316.22,239.89,338.78,244.15,367.14Z"/><path class="cls-12" d="M297.45,432.28s-17-29.72,11.74-50.92c0,0-16,22.56-11.74,50.92"/><path class="cls-13" d="M297.45,432.28s-17-29.72,11.74-50.92C309.19,381.36,293.18,403.92,297.45,432.28Z"/><path class="cls-27" d="M597.92,600.11s6.89-33.53,42.46-30.45c0,0-26.92,6.35-42.46,30.45"/><path class="cls-27" d="M624.28,407.65s6.89-33.54,42.46-30.46c0,0-26.92,6.35-42.46,30.46"/><path class="cls-27" d="M602.57,357.31s6.89-33.53,42.46-30.46c0,0-26.92,6.36-42.46,30.46"/><path class="cls-27" d="M524.6,396.79s6.89-33.53,42.46-30.46c0,0-26.92,6.36-42.46,30.46"/><path class="cls-27" d="M874,366.19s6.89-33.53,42.46-30.45c0,0-26.92,6.35-42.46,30.45"/><path class="cls-27" d="M678.57,442.19s6.89-33.53,42.46-30.45c0,0-26.92,6.35-42.46,30.45"/><path class="cls-27" d="M711.14,490.55S718,457,753.6,460.1c0,0-26.92,6.35-42.46,30.45"/><path class="cls-27" d="M941.18,403.49s14.25-31.13,48.22-20.15c0,0-27.66.15-48.22,20.15"/><path class="cls-27" d="M614.41,760s6.89-33.53,42.46-30.45c0,0-26.92,6.35-42.46,30.45"/><path class="cls-27" d="M650.93,629.72s6.89-33.53,42.46-30.46c0,0-26.92,6.36-42.46,30.46"/><path class="cls-27" d="M567,718.55s6.89-33.53,42.46-30.46c0,0-26.92,6.35-42.46,30.46"/><path class="cls-27" d="M637.57,532.89s6.89-33.53,42.46-30.46c0,0-26.92,6.36-42.46,30.46"/><path class="cls-27" d="M637.57,532.89s6.89-33.53,42.46-30.46c0,0-26.92,6.36-42.46,30.46"/><path class="cls-27" d="M637.57,532.89s6.89-33.53,42.46-30.46c0,0-26.92,6.36-42.46,30.46"/><path class="cls-27" d="M824.11,411.49S831,378,866.57,381c0,0-26.92,6.36-42.46,30.46"/><path class="cls-27" d="M751.07,373s6.89-33.54,42.46-30.46c0,0-26.92,6.35-42.46,30.46"/><rect x="155.79" y="759.14" width="638.58" height="106.6"/><polygon points="144.93 854.88 155.79 865.74 155.79 854.88 144.93 854.88"/><polygon points="788.45 744.34 794.37 759.14 788.45 759.14 788.45 744.34"/></g><g class="cls-28"><rect class="cls-29" x="412.9" y="480.73" width="107.58" height="638.74" transform="translate(-334.13 1265.56) rotate(-89.91)"/></g><rect class="cls-21" x="147.4" y="746.81" width="638.58" height="106.6"/><path d="M242.44,787.06l1.44,34h-1.54c-1,0-2.3,0-3.85-.1s-3-.16-4.22-.32a11.69,11.69,0,0,1-2.81-.61l-1.67-32.57-15.77.22.23-10L254.66,775l.64,11Z"/><path d="M286.68,817.12l26.54,1.24-.2,11L276.1,827.5l-2.05-38.16-3.55.63.64-12,30.67-4.58.63,11L285,787.26l.41,7.9,17.2-2.91.64,9.11-17.41,3.31Z"/><path d="M346.58,798q-.91.91-2,1.89c-.71.65-1.19,1.07-1.44,1.28l3.32,18.44-8.71,2.28-5.19-33c-.1,0-.29.15-.57.46s-.65.73-1.11,1.29-.73.87-.8.94a4.36,4.36,0,0,1-.49-1.09q-.42-1.1-1.11-3l-1.57-4.3c-.59-1.58-1-2.57-1.18-3,2-.68,4-1.3,5.76-1.88s3.69-1.11,5.68-1.63,3.89-.92,5.71-1.23a32.65,32.65,0,0,1,5.35-.45,21,21,0,0,1,3.77.32,12.75,12.75,0,0,1,3.25,1,9.57,9.57,0,0,1,2.73,2,10,10,0,0,1,2,2.89,2.89,2.89,0,0,1,.26,1.3,6.12,6.12,0,0,1-.75,2.72,22,22,0,0,1-2,3.13q-1.23,1.67-2.72,3.43a4.07,4.07,0,0,1,2.67,2,13,13,0,0,1,1.88,4.4l4.35,22.39L356,822.31l-5.6-20.52a11.82,11.82,0,0,0-.58-1.3,8.5,8.5,0,0,0-1.16-1.74,2.09,2.09,0,0,0-1.57-.86A2.45,2.45,0,0,0,346.58,798Zm-6.1-11.54,1.44,7.44c1.11-.23,2.36-1.19,3.73-2.88s2.07-3,2.07-4c0-.52-.21-.84-.61-.94a17.65,17.65,0,0,0-3.47-.66A5.37,5.37,0,0,0,340.48,786.45Z"/><path d="M403.59,798c-.6.61-1.26,1.24-2,1.89s-1.19,1.07-1.44,1.28l3.31,18.44-8.7,2.28-5.19-33c-.1,0-.29.15-.57.46s-.65.73-1.11,1.29-.73.87-.8.94a4,4,0,0,1-.49-1.09c-.28-.73-.65-1.74-1.12-3s-1-2.72-1.57-4.3-1-2.57-1.17-3c2-.68,4-1.3,5.75-1.88s3.69-1.11,5.68-1.63,3.9-.92,5.71-1.23a32.74,32.74,0,0,1,5.35-.45,20.87,20.87,0,0,1,3.77.32,12.82,12.82,0,0,1,3.26,1,9.57,9.57,0,0,1,2.73,2,10.16,10.16,0,0,1,2,2.89,2.9,2.9,0,0,1,.25,1.3,6.23,6.23,0,0,1-.74,2.72,22.14,22.14,0,0,1-2,3.13q-1.22,1.67-2.72,3.43a4,4,0,0,1,2.67,2,13.23,13.23,0,0,1,1.89,4.4l4.35,22.39L413,822.31l-5.59-20.52a14.16,14.16,0,0,0-.58-1.3,8.56,8.56,0,0,0-1.17-1.74,2.09,2.09,0,0,0-1.56-.86A2.63,2.63,0,0,0,403.59,798Zm-6.1-11.54,1.45,7.44q1.67-.35,3.73-2.88t2.06-4c0-.52-.2-.84-.6-.94a17.78,17.78,0,0,0-3.47-.66A5.43,5.43,0,0,0,397.49,786.45Z"/><path d="M458,773.8l24.88,59.9-10.58,1-11.82-27.56-6.63-1-10.35,22-13.09.63Zm-3.72,26.32,6,.83-2.48-9.74Z"/><path d="M545.62,787.06l1.44,34h-1.55c-1,0-2.29,0-3.84-.1s-3-.16-4.23-.32a11.93,11.93,0,0,1-2.81-.61L533,787.47l-15.76.22.22-10L557.84,775l.63,11Z"/><path d="M595.34,798c-.6.61-1.26,1.24-2,1.89s-1.19,1.07-1.44,1.28l3.31,18.44-8.7,2.28-5.19-33c-.1,0-.29.15-.57.46s-.65.73-1.11,1.29-.73.87-.8.94a4,4,0,0,1-.49-1.09c-.28-.73-.65-1.74-1.12-3s-1-2.72-1.57-4.3-1-2.57-1.17-3c2-.68,4-1.3,5.75-1.88s3.69-1.11,5.69-1.63,3.89-.92,5.7-1.23A32.83,32.83,0,0,1,597,775a20.87,20.87,0,0,1,3.77.32,12.82,12.82,0,0,1,3.26,1,9.57,9.57,0,0,1,2.73,2,10.16,10.16,0,0,1,2,2.89,2.9,2.9,0,0,1,.25,1.3,6.1,6.1,0,0,1-.74,2.72,22.14,22.14,0,0,1-2,3.13c-.82,1.11-1.72,2.25-2.72,3.43a4,4,0,0,1,2.67,2,13.23,13.23,0,0,1,1.89,4.4l4.35,22.39-7.67,1.67-5.59-20.52a11.82,11.82,0,0,0-.58-1.3,8.56,8.56,0,0,0-1.17-1.74,2.09,2.09,0,0,0-1.57-.86A2.69,2.69,0,0,0,595.34,798Zm-6.1-11.54,1.45,7.44q1.66-.35,3.73-2.88c1.38-1.69,2.06-3,2.06-4,0-.52-.2-.84-.61-.94a17.6,17.6,0,0,0-3.46-.66A5.43,5.43,0,0,0,589.24,786.45Z"/><path d="M646.87,817.12l26.55,1.24-.21,11-36.92-1.85-2-38.16-3.54.63.63-12L662,773.37l.63,11-17.41,2.88.41,7.9,17.21-2.91.63,9.11-17.41,3.31Z"/><path d="M685.94,778.15l12.86-5.39v8.3l6.83-7.26,8.71,7.26-12.43,18L727.83,819l.6,10.14-26.32-14.29.64,12.42-12,.23-2.28-44-3.72.84Z"/><g class="cls-2"><path d="M981.82,309.76c23.55,5.31,47.67,10.76,68.84,22.81a83.22,83.22,0,0,1,14.63,10c4,3.6,7.59,8.76,4.83,14.2a25.93,25.93,0,0,1-5.28,6.48c-2.27,2.25-4.53,4.5-6.74,6.81q-6.61,6.89-12.78,14.19A305.34,305.34,0,0,0,1019.9,419c-1.08,1.72,1.64,3.3,2.72,1.58a300.18,300.18,0,0,1,23.26-32.12q6.31-7.62,13.14-14.81,3.42-3.6,6.94-7.08a46.18,46.18,0,0,0,5.85-6.49c3.4-5,3-10.79-.5-15.58s-8.8-8.28-13.76-11.46a149.72,149.72,0,0,0-33.7-15.54c-13.48-4.49-27.35-7.66-41.19-10.78-2-.45-2.82,2.59-.84,3"/><path d="M44,497.28a379.94,379.94,0,0,0-28.81,56.57q-3.06,7.47-5.78,15.07c-1.68,4.67-4.22,10.13-2.29,15.1,1.7,4.39,5.91,7.26,9.29,10.3q5.79,5.19,11.22,10.78a235.34,235.34,0,0,1,22.58,27c1.17,1.64,3.9.07,2.72-1.58A241.5,241.5,0,0,0,33.72,607q-5.22-5.61-10.79-10.88-2.74-2.6-5.56-5.1c-1.72-1.52-3.54-3-5.1-4.65a9,9,0,0,1-2.73-6.06c0-2.68,1-5.29,1.9-7.79q2.58-7.4,5.48-14.68,5.71-14.35,12.62-28.22,7.85-15.75,17.14-30.72c1.07-1.72-1.66-3.31-2.72-1.59"/><path d="M301.3,247.54a452.39,452.39,0,0,1,53.43-30.36c4.49-2.16,9-4.62,13.78-6.19a11.22,11.22,0,0,1,6.91-.52,8.79,8.79,0,0,1,4.51,3.91,61.43,61.43,0,0,1,3.19,6.2q1.75,3.63,3.52,7.28l7,14.55,16,33.11c.88,1.83,3.6.23,2.72-1.59l-14.73-30.52-7.26-15c-2.31-4.79-4.42-9.75-7-14.39-2.21-4-5.55-7-10.34-7-5,0-9.7,2.73-14.09,4.76q-14.51,6.72-28.51,14.47-15.71,8.7-30.7,18.62c-1.68,1.12-.11,3.84,1.59,2.72"/><path d="M572.49,285.8q47.16-6.74,94.73-10,47.22-3.21,94.59-3,26.64.13,53.26,1.38c2,.09,2-3.06,0-3.15q-47.54-2.21-95.15-.92t-95,6.08q-26.72,2.7-53.3,6.5c-2,.29-1.15,3.32.84,3"/><path d="M603.14,261.7q28.59-6.28,57.7-9.75c19.26-2.27,38.64-3.6,58-4q16.46-.33,32.92.26c2,.07,2-3.07,0-3.15q-29.34-1-58.67.8t-58.23,6.56q-16.36,2.66-32.58,6.22c-2,.44-1.14,3.47.83,3"/><path d="M825.07,625.89a151.54,151.54,0,0,1-26.47,89.32c-1.15,1.67,1.58,3.25,2.72,1.59a155.59,155.59,0,0,0,25.94-69.67,152.27,152.27,0,0,0,1-21.24c-.05-2-3.2-2-3.15,0"/><path d="M852.25,638.43a114.15,114.15,0,0,1-5.87,51,120,120,0,0,1-27.16,43.91,110.28,110.28,0,0,1-22.88,18,1.57,1.57,0,0,0,1.59,2.71,116.86,116.86,0,0,0,38-36.55,122.77,122.77,0,0,0,18.89-49.15,113.47,113.47,0,0,0,.53-29.91c-.23-2-3.38-2-3.14,0"/><path d="M378.85,605.06a341.1,341.1,0,0,1,33.23,57.18q3.92,8.55,7.34,17.32c.73,1.87,3.77,1.06,3-.83a343,343,0,0,0-30.22-59.54q-5.12-8-10.66-15.72c-1.17-1.63-3.9-.06-2.72,1.59"/><path d="M404.81,612.44a161.9,161.9,0,0,1,28.76,43.79q3,6.87,5.43,14c.64,1.91,3.68,1.09,3-.83a164.42,164.42,0,0,0-25.24-47.59q-4.62-6-9.75-11.61c-1.38-1.49-3.6.74-2.23,2.23"/></g></svg>